<mxfile host="app.diagrams.net" modified="2022-03-28T06:30:28.432Z" agent="5.0 (Windows NT 10.0; Win64; x64) AppleWebKit/537.36 (KHTML, like Gecko) Chrome/96.0.4664.93 Safari/537.36" etag="2y1Z8H523y5K-sqjh86D" version="17.1.3" type="github">
  <diagram name="Page-1" id="9361dd3d-8414-5efd-6122-117bd74ce7a7">
    <mxGraphModel dx="948" dy="524" grid="1" gridSize="10" guides="1" tooltips="1" connect="1" arrows="1" fold="1" page="0" pageScale="1.5" pageWidth="826" pageHeight="1169" background="none" math="0" shadow="0">
      <root>
        <mxCell id="0" />
        <mxCell id="1" parent="0" />
        <mxCell id="69" value="" style="fillColor=#DEE8FF;strokeColor=none" parent="1" vertex="1">
          <mxGeometry y="30" width="1583" height="780" as="geometry" />
        </mxCell>
        <mxCell id="OUz_nzHXEY4qdXHect04-102" value="透传查询" style="shape=umlFrame;whiteSpace=wrap;html=1;labelBackgroundColor=#BFC8DB;fontSize=9;fillColor=#FFD966;" vertex="1" parent="1">
          <mxGeometry x="36" y="476" width="735" height="90" as="geometry" />
        </mxCell>
        <mxCell id="LP91aPNowKj5EOJhhBp3-124" value="实时日志" style="shape=umlFrame;whiteSpace=wrap;html=1;labelBackgroundColor=#BFC8DB;fontSize=9;fillColor=#FFD966;" parent="1" vertex="1">
          <mxGeometry x="35" y="361" width="735" height="110" as="geometry" />
        </mxCell>
        <mxCell id="LP91aPNowKj5EOJhhBp3-121" value="下行设置" style="shape=umlFrame;whiteSpace=wrap;html=1;labelBackgroundColor=#BFC8DB;fontSize=9;fillColor=#FFD966;" parent="1" vertex="1">
          <mxGeometry x="36" y="130" width="734" height="220" as="geometry" />
        </mxCell>
        <mxCell id="7" value="DK-Server" style="shadow=1;fillColor=#A2C4C9;strokeColor=none" parent="1" vertex="1">
          <mxGeometry x="247.5" y="65" width="105" height="50" as="geometry" />
        </mxCell>
        <mxCell id="8" value="" style="edgeStyle=none;endArrow=none;dashed=1;entryX=0.19;entryY=0.731;entryDx=0;entryDy=0;entryPerimeter=0;" parent="1" source="7" target="69" edge="1">
          <mxGeometry x="224.8350694444445" y="168" width="100" height="100" as="geometry">
            <mxPoint x="299.7588734567901" y="113" as="sourcePoint" />
            <mxPoint x="300" y="490" as="targetPoint" />
          </mxGeometry>
        </mxCell>
        <mxCell id="6" value="" style="fillColor=#CC4125;strokeColor=#660000" parent="1" vertex="1">
          <mxGeometry x="295" y="150" width="10" height="180" as="geometry" />
        </mxCell>
        <mxCell id="9" value="1、HTTP：车辆参数设置" style="edgeStyle=none;verticalLabelPosition=top;verticalAlign=bottom;entryX=0.05;entryY=0.015;entryDx=0;entryDy=0;entryPerimeter=0;" parent="1" edge="1">
          <mxGeometry x="220" y="78" width="100" height="100" as="geometry">
            <mxPoint x="130" y="160" as="sourcePoint" />
            <mxPoint x="295.5" y="160.64999999999998" as="targetPoint" />
          </mxGeometry>
        </mxCell>
        <mxCell id="33" value="" style="edgeStyle=elbowEdgeStyle;elbow=horizontal;endArrow=none;dashed=1;" parent="1" source="4" edge="1">
          <mxGeometry x="230.00000000000003" y="310" width="100" height="100" as="geometry">
            <mxPoint x="230.00000000000003" y="410" as="sourcePoint" />
            <mxPoint x="123" y="500" as="targetPoint" />
          </mxGeometry>
        </mxCell>
        <mxCell id="11" value="" style="edgeStyle=none;verticalLabelPosition=top;verticalAlign=bottom;endArrow=classic;startArrow=classic;entryX=0.1;entryY=0.915;entryDx=0;entryDy=0;entryPerimeter=0;endFill=1;" parent="1" edge="1">
          <mxGeometry x="219" y="316.2588734567901" width="100" height="100" as="geometry">
            <mxPoint x="130" y="442" as="sourcePoint" />
            <mxPoint x="295" y="442.1" as="targetPoint" />
          </mxGeometry>
        </mxCell>
        <mxCell id="LP91aPNowKj5EOJhhBp3-100" value="9、MQTT：上行实时日志数据" style="edgeLabel;html=1;align=center;verticalAlign=middle;resizable=0;points=[];labelBackgroundColor=#BFC8DB;" parent="11" vertex="1" connectable="0">
          <mxGeometry relative="1" as="geometry">
            <mxPoint x="-2" y="-14" as="offset" />
          </mxGeometry>
        </mxCell>
        <mxCell id="2" value="" style="fillColor=#CC4125;strokeColor=#660000" parent="1" vertex="1">
          <mxGeometry x="119" y="140" width="10" height="200" as="geometry" />
        </mxCell>
        <mxCell id="22" value="TSP" style="shadow=1;fillColor=#FFD966;strokeColor=none" parent="1" vertex="1">
          <mxGeometry x="449" y="63" width="105" height="50" as="geometry" />
        </mxCell>
        <mxCell id="23" value="" style="edgeStyle=none;endArrow=none;dashed=1;entryX=0.317;entryY=0.731;entryDx=0;entryDy=0;entryPerimeter=0;" parent="1" source="22" target="69" edge="1">
          <mxGeometry x="614.4878472222224" y="174.99999999999997" width="100" height="100" as="geometry">
            <mxPoint x="674.6527777777778" y="110" as="sourcePoint" />
            <mxPoint x="502" y="320" as="targetPoint" />
          </mxGeometry>
        </mxCell>
        <mxCell id="21" value="" style="fillColor=#CC4125;strokeColor=#660000" parent="1" vertex="1">
          <mxGeometry x="497" y="162" width="10" height="50" as="geometry" />
        </mxCell>
        <mxCell id="24" value="TBOX" style="shadow=1;fillColor=#FFD966;strokeColor=none" parent="1" vertex="1">
          <mxGeometry x="644.86" y="63" width="105" height="50" as="geometry" />
        </mxCell>
        <mxCell id="34" value="2、HTTP：透传下行参数设置" style="edgeStyle=elbowEdgeStyle;elbow=vertical;verticalLabelPosition=top;verticalAlign=bottom;entryX=0.3;entryY=0.113;entryDx=0;entryDy=0;entryPerimeter=0;exitX=1.5;exitY=0.091;exitDx=0;exitDy=0;exitPerimeter=0;" parent="1" edge="1">
          <mxGeometry width="100" height="100" as="geometry">
            <mxPoint x="307" y="172.01" as="sourcePoint" />
            <mxPoint x="497" y="172.961" as="targetPoint" />
            <Array as="points" />
            <mxPoint x="-2" as="offset" />
          </mxGeometry>
        </mxCell>
        <mxCell id="LP91aPNowKj5EOJhhBp3-93" value="" style="edgeStyle=none;verticalLabelPosition=top;verticalAlign=bottom;endArrow=none;startArrow=classic;entryX=0;entryY=1;entryDx=0;entryDy=0;exitX=0.975;exitY=0.54;exitDx=0;exitDy=0;exitPerimeter=0;" parent="1" edge="1">
          <mxGeometry x="375" y="189.49887345679014" width="100" height="100" as="geometry">
            <mxPoint x="305.75" y="290.20000000000005" as="sourcePoint" />
            <mxPoint x="495" y="290" as="targetPoint" />
          </mxGeometry>
        </mxCell>
        <mxCell id="LP91aPNowKj5EOJhhBp3-94" value="7、HTTP：透传上行设置参数响应" style="edgeLabel;html=1;align=center;verticalAlign=middle;resizable=0;points=[];" parent="LP91aPNowKj5EOJhhBp3-93" vertex="1" connectable="0">
          <mxGeometry relative="1" as="geometry">
            <mxPoint x="13" y="-9" as="offset" />
          </mxGeometry>
        </mxCell>
        <mxCell id="LP91aPNowKj5EOJhhBp3-104" value="" style="edgeStyle=none;verticalLabelPosition=top;verticalAlign=bottom;endArrow=none;startArrow=classic;entryX=-0.033;entryY=0.63;entryDx=0;entryDy=0;entryPerimeter=0;" parent="1" edge="1">
          <mxGeometry x="200.67" y="214.49887345679014" width="100" height="100" as="geometry">
            <mxPoint x="130" y="321" as="sourcePoint" />
            <mxPoint x="294.66999999999996" y="321.4" as="targetPoint" />
          </mxGeometry>
        </mxCell>
        <mxCell id="LP91aPNowKj5EOJhhBp3-105" value="8、HTTP：返回参数设置响应" style="edgeLabel;html=1;align=center;verticalAlign=middle;resizable=0;points=[];" parent="LP91aPNowKj5EOJhhBp3-104" vertex="1" connectable="0">
          <mxGeometry relative="1" as="geometry">
            <mxPoint x="5" y="-12" as="offset" />
          </mxGeometry>
        </mxCell>
        <mxCell id="LP91aPNowKj5EOJhhBp3-106" value="" style="edgeStyle=none;verticalLabelPosition=top;verticalAlign=bottom;endArrow=none;startArrow=classic;dashed=1;entryX=0;entryY=1;entryDx=0;entryDy=0;exitX=0.9;exitY=0.533;exitDx=0;exitDy=0;exitPerimeter=0;" parent="1" edge="1">
          <mxGeometry x="379" y="107.49887345679014" width="100" height="100" as="geometry">
            <mxPoint x="306" y="206.94000000000005" as="sourcePoint" />
            <mxPoint x="499" y="208" as="targetPoint" />
          </mxGeometry>
        </mxCell>
        <mxCell id="LP91aPNowKj5EOJhhBp3-107" value="返回ACK回复" style="edgeLabel;html=1;align=center;verticalAlign=middle;resizable=0;points=[];" parent="LP91aPNowKj5EOJhhBp3-106" vertex="1" connectable="0">
          <mxGeometry relative="1" as="geometry">
            <mxPoint x="-3" y="-1" as="offset" />
          </mxGeometry>
        </mxCell>
        <mxCell id="LP91aPNowKj5EOJhhBp3-108" value="" style="edgeStyle=none;verticalLabelPosition=top;verticalAlign=bottom;endArrow=classic;startArrow=none;dashed=1;entryX=0;entryY=1;entryDx=0;entryDy=0;endFill=1;startFill=0;" parent="1" edge="1">
          <mxGeometry x="376" y="211.49887345679014" width="100" height="100" as="geometry">
            <mxPoint x="310" y="312" as="sourcePoint" />
            <mxPoint x="496" y="312" as="targetPoint" />
          </mxGeometry>
        </mxCell>
        <mxCell id="LP91aPNowKj5EOJhhBp3-109" value="返回" style="edgeLabel;html=1;align=center;verticalAlign=middle;resizable=0;points=[];" parent="LP91aPNowKj5EOJhhBp3-108" vertex="1" connectable="0">
          <mxGeometry relative="1" as="geometry">
            <mxPoint x="-1" y="-2" as="offset" />
          </mxGeometry>
        </mxCell>
        <mxCell id="LP91aPNowKj5EOJhhBp3-116" value="5、等待车端响应" style="edgeStyle=orthogonalEdgeStyle;html=1;align=left;spacingLeft=2;endArrow=block;rounded=0;entryX=1;entryY=0.5;fontSize=9;entryDx=0;entryDy=0;" parent="1" edge="1">
          <mxGeometry relative="1" as="geometry">
            <mxPoint x="306" y="219" as="sourcePoint" />
            <Array as="points">
              <mxPoint x="336" y="219" />
              <mxPoint x="336" y="270" />
            </Array>
            <mxPoint x="305" y="270" as="targetPoint" />
          </mxGeometry>
        </mxCell>
        <mxCell id="LP91aPNowKj5EOJhhBp3-117" value="" style="edgeStyle=none;verticalLabelPosition=top;verticalAlign=bottom;endArrow=none;startArrow=classic;entryX=0;entryY=1;entryDx=0;entryDy=0;exitX=0.975;exitY=0.54;exitDx=0;exitDy=0;exitPerimeter=0;" parent="1" edge="1">
          <mxGeometry x="375" y="298.49887345679014" width="100" height="100" as="geometry">
            <mxPoint x="305.75" y="399.20000000000005" as="sourcePoint" />
            <mxPoint x="495" y="399" as="targetPoint" />
          </mxGeometry>
        </mxCell>
        <mxCell id="LP91aPNowKj5EOJhhBp3-118" value="7’、HTTP：透传上行日志数据" style="edgeLabel;html=1;align=center;verticalAlign=middle;resizable=0;points=[];" parent="LP91aPNowKj5EOJhhBp3-117" vertex="1" connectable="0">
          <mxGeometry relative="1" as="geometry">
            <mxPoint x="11" y="-12" as="offset" />
          </mxGeometry>
        </mxCell>
        <mxCell id="LP91aPNowKj5EOJhhBp3-119" value="" style="edgeStyle=none;verticalLabelPosition=top;verticalAlign=bottom;endArrow=classic;startArrow=none;dashed=1;entryX=-0.25;entryY=0.95;entryDx=0;entryDy=0;endFill=1;startFill=0;entryPerimeter=0;" parent="1" edge="1">
          <mxGeometry x="381" y="316.49887345679014" width="100" height="100" as="geometry">
            <mxPoint x="310" y="420" as="sourcePoint" />
            <mxPoint x="494.5" y="418.5" as="targetPoint" />
          </mxGeometry>
        </mxCell>
        <mxCell id="LP91aPNowKj5EOJhhBp3-120" value="返回" style="edgeLabel;html=1;align=center;verticalAlign=middle;resizable=0;points=[];" parent="LP91aPNowKj5EOJhhBp3-119" vertex="1" connectable="0">
          <mxGeometry relative="1" as="geometry">
            <mxPoint x="-3" y="-2" as="offset" />
          </mxGeometry>
        </mxCell>
        <mxCell id="4" value="DK-Plugin" style="shadow=1;fillColor=#A2C4C9;strokeColor=none" parent="1" vertex="1">
          <mxGeometry x="71.5" y="63" width="105" height="50" as="geometry" />
        </mxCell>
        <mxCell id="LP91aPNowKj5EOJhhBp3-127" value="单向通信&#xa;小于200ms" style="edgeStyle=elbowEdgeStyle;elbow=horizontal;startArrow=open;endArrow=open;labelPosition=left;align=left;fontSize=9;" parent="1" edge="1">
          <mxGeometry x="146" y="227.74" width="100" height="100" as="geometry">
            <mxPoint x="902" y="559" as="sourcePoint" />
            <mxPoint x="902" y="609" as="targetPoint" />
            <mxPoint x="4" as="offset" />
          </mxGeometry>
        </mxCell>
        <mxCell id="LP91aPNowKj5EOJhhBp3-128" value="" style="edgeStyle=none;verticalLabelPosition=top;verticalAlign=bottom;endArrow=none;startArrow=none;exitX=0.9;exitY=0.533;exitDx=0;exitDy=0;exitPerimeter=0;startFill=0;" parent="1" edge="1">
          <mxGeometry x="900" y="328.23887345679015" width="100" height="100" as="geometry">
            <mxPoint x="857" y="558.94" as="sourcePoint" />
            <mxPoint x="917" y="559" as="targetPoint" />
          </mxGeometry>
        </mxCell>
        <mxCell id="LP91aPNowKj5EOJhhBp3-129" value="" style="edgeStyle=none;verticalLabelPosition=top;verticalAlign=bottom;endArrow=none;startArrow=none;exitX=0.9;exitY=0.533;exitDx=0;exitDy=0;exitPerimeter=0;startFill=0;" parent="1" edge="1">
          <mxGeometry x="900" y="377.23887345679015" width="100" height="100" as="geometry">
            <mxPoint x="857" y="607.94" as="sourcePoint" />
            <mxPoint x="917" y="608" as="targetPoint" />
          </mxGeometry>
        </mxCell>
        <mxCell id="OUz_nzHXEY4qdXHect04-74" value="" style="edgeStyle=none;verticalLabelPosition=top;verticalAlign=bottom;endArrow=none;startArrow=classic;entryX=0;entryY=0.5;entryDx=0;entryDy=0;" edge="1" parent="1" target="OUz_nzHXEY4qdXHect04-90">
          <mxGeometry x="573" y="285.49887345679014" width="100" height="100" as="geometry">
            <mxPoint x="510" y="386" as="sourcePoint" />
            <mxPoint x="655" y="386" as="targetPoint" />
          </mxGeometry>
        </mxCell>
        <mxCell id="OUz_nzHXEY4qdXHect04-103" value="6’、HTTP：透传上行日志数据" style="edgeLabel;html=1;align=center;verticalAlign=middle;resizable=0;points=[];fontSize=11;" vertex="1" connectable="0" parent="OUz_nzHXEY4qdXHect04-74">
          <mxGeometry relative="1" as="geometry">
            <mxPoint x="1" y="-10" as="offset" />
          </mxGeometry>
        </mxCell>
        <mxCell id="OUz_nzHXEY4qdXHect04-76" value="3、MQTT：透传下行参数设置" style="edgeStyle=elbowEdgeStyle;elbow=vertical;verticalLabelPosition=top;verticalAlign=bottom;entryX=0;entryY=0.5;entryDx=0;entryDy=0;" edge="1" parent="1" target="OUz_nzHXEY4qdXHect04-82">
          <mxGeometry y="-11" width="100" height="100" as="geometry">
            <mxPoint x="510" y="180" as="sourcePoint" />
            <mxPoint x="653" y="179.9609999999999" as="targetPoint" />
            <Array as="points" />
            <mxPoint x="-1" as="offset" />
          </mxGeometry>
        </mxCell>
        <mxCell id="OUz_nzHXEY4qdXHect04-81" value="" style="edgeStyle=none;endArrow=none;dashed=1;" edge="1" parent="1" source="24">
          <mxGeometry x="622.1950694444446" y="165" width="100" height="100" as="geometry">
            <mxPoint x="697.3343827160495" y="110" as="sourcePoint" />
            <mxPoint x="697" y="500" as="targetPoint" />
          </mxGeometry>
        </mxCell>
        <mxCell id="OUz_nzHXEY4qdXHect04-79" value="4、MQTT：上行ACK回复" style="edgeStyle=elbowEdgeStyle;elbow=vertical;verticalLabelPosition=top;verticalAlign=bottom;entryX=0;entryY=0.5;entryDx=0;entryDy=0;startArrow=classic;startFill=1;endArrow=none;endFill=0;" edge="1" parent="1" target="OUz_nzHXEY4qdXHect04-80">
          <mxGeometry x="-2" y="-9" width="100" height="100" as="geometry">
            <mxPoint x="508" y="203" as="sourcePoint" />
            <mxPoint x="651" y="202.9609999999999" as="targetPoint" />
            <Array as="points" />
            <mxPoint x="-1" as="offset" />
          </mxGeometry>
        </mxCell>
        <mxCell id="OUz_nzHXEY4qdXHect04-80" value="" style="fillColor=#CC4125;strokeColor=#660000" vertex="1" parent="1">
          <mxGeometry x="692.36" y="196" width="10" height="14" as="geometry" />
        </mxCell>
        <mxCell id="OUz_nzHXEY4qdXHect04-82" value="" style="fillColor=#CC4125;strokeColor=#660000" vertex="1" parent="1">
          <mxGeometry x="692.36" y="170" width="10" height="17" as="geometry" />
        </mxCell>
        <mxCell id="OUz_nzHXEY4qdXHect04-84" value="" style="fillColor=#CC4125;strokeColor=#660000" vertex="1" parent="1">
          <mxGeometry x="496" y="272" width="10" height="48" as="geometry" />
        </mxCell>
        <mxCell id="OUz_nzHXEY4qdXHect04-85" value="6、MQTT：透传上行设置参数响应" style="edgeStyle=elbowEdgeStyle;elbow=vertical;verticalLabelPosition=top;verticalAlign=bottom;entryX=0;entryY=0.5;entryDx=0;entryDy=0;startArrow=classic;startFill=1;endArrow=none;endFill=0;" edge="1" parent="1" target="OUz_nzHXEY4qdXHect04-86">
          <mxGeometry x="-2" y="68" width="100" height="100" as="geometry">
            <mxPoint x="508" y="280" as="sourcePoint" />
            <mxPoint x="651" y="279.9609999999999" as="targetPoint" />
            <Array as="points">
              <mxPoint x="670" y="280" />
            </Array>
            <mxPoint x="-1" as="offset" />
          </mxGeometry>
        </mxCell>
        <mxCell id="OUz_nzHXEY4qdXHect04-86" value="" style="fillColor=#CC4125;strokeColor=#660000" vertex="1" parent="1">
          <mxGeometry x="692.36" y="272" width="10" height="14" as="geometry" />
        </mxCell>
        <mxCell id="OUz_nzHXEY4qdXHect04-87" value="" style="fillColor=#CC4125;strokeColor=#660000" vertex="1" parent="1">
          <mxGeometry x="295" y="389" width="10" height="72" as="geometry" />
        </mxCell>
        <mxCell id="OUz_nzHXEY4qdXHect04-89" value="" style="fillColor=#CC4125;strokeColor=#660000" vertex="1" parent="1">
          <mxGeometry x="498" y="381" width="10" height="55" as="geometry" />
        </mxCell>
        <mxCell id="OUz_nzHXEY4qdXHect04-90" value="" style="fillColor=#CC4125;strokeColor=#660000" vertex="1" parent="1">
          <mxGeometry x="692.36" y="379" width="10" height="14" as="geometry" />
        </mxCell>
        <mxCell id="OUz_nzHXEY4qdXHect04-91" value="" style="fillColor=#CC4125;strokeColor=#660000" vertex="1" parent="1">
          <mxGeometry x="119" y="420" width="10" height="43" as="geometry" />
        </mxCell>
        <mxCell id="OUz_nzHXEY4qdXHect04-97" value="" style="fillColor=#CC4125;strokeColor=#660000" vertex="1" parent="1">
          <mxGeometry x="295" y="496" width="10" height="70" as="geometry" />
        </mxCell>
        <mxCell id="OUz_nzHXEY4qdXHect04-98" value="10、HTTP：查询透传消息id的流转情况" style="edgeStyle=elbowEdgeStyle;elbow=vertical;verticalLabelPosition=top;verticalAlign=bottom;entryX=0.3;entryY=0.113;entryDx=0;entryDy=0;entryPerimeter=0;exitX=1.5;exitY=0.091;exitDx=0;exitDy=0;exitPerimeter=0;" edge="1" parent="1">
          <mxGeometry width="100" height="100" as="geometry">
            <mxPoint x="309" y="509.9999999999999" as="sourcePoint" />
            <mxPoint x="499" y="510.9509999999999" as="targetPoint" />
            <Array as="points" />
            <mxPoint x="-4" as="offset" />
          </mxGeometry>
        </mxCell>
        <mxCell id="OUz_nzHXEY4qdXHect04-99" value="" style="fillColor=#CC4125;strokeColor=#660000" vertex="1" parent="1">
          <mxGeometry x="497" y="503" width="10" height="51" as="geometry" />
        </mxCell>
        <mxCell id="OUz_nzHXEY4qdXHect04-100" value="" style="edgeStyle=none;verticalLabelPosition=top;verticalAlign=bottom;endArrow=none;startArrow=classic;dashed=1;entryX=0;entryY=1;entryDx=0;entryDy=0;exitX=0.9;exitY=0.533;exitDx=0;exitDy=0;exitPerimeter=0;" edge="1" parent="1">
          <mxGeometry x="378" y="445.55887345679014" width="100" height="100" as="geometry">
            <mxPoint x="305" y="545" as="sourcePoint" />
            <mxPoint x="498" y="546.06" as="targetPoint" />
          </mxGeometry>
        </mxCell>
        <mxCell id="OUz_nzHXEY4qdXHect04-101" value="返回流转列表" style="edgeLabel;html=1;align=center;verticalAlign=middle;resizable=0;points=[];" vertex="1" connectable="0" parent="OUz_nzHXEY4qdXHect04-100">
          <mxGeometry relative="1" as="geometry">
            <mxPoint x="-3" y="-1" as="offset" />
          </mxGeometry>
        </mxCell>
      </root>
    </mxGraphModel>
  </diagram>
</mxfile>
